<svg xmlns="http://www.w3.org/2000/svg" viewBox="0 0 5875.21 1340.92"><defs><style>.cls-1{fill:#4b67ca;}</style></defs><title>Kaidee LOGO</title><g id="Layer_2" data-name="Layer 2"><g id="Layer_1-2" data-name="Layer 1"><path class="cls-1" d="M4751.19,971.33c-37.39,65.91-419,267.39-531.3-64.81l484-91c65.93-11.63,126.18-61.59,99.15-217.5-23-132.61-200.06-353.94-496.6-299.73-309.47,56.57-458.42,288-393,604.34,135.5,655.7,951.18,431.5,920.84,195.48C4827.07,1042,4768.57,984.62,4751.19,971.33ZM4352,507.29c157.8-59.75,216.64,39,217.91,86.29.48,18.14-26.89,26.42-52.88,25.13-45.06-2.29-122,19.1-192.65,84.49-46.52,43-94.61,24.72-100.33-11.53C4218.47,656.12,4216.84,558.49,4352,507.29Z"/><path class="cls-1" d="M5791.29,971.33c-37.38,65.91-419,267.39-531.29-64.81l484-91c65.94-11.63,126.18-61.59,99.15-217.5-23-132.61-200.05-353.94-496.59-299.73-309.48,56.57-458.42,288-393.05,604.34,135.5,655.7,951.18,431.5,920.84,195.48C5867.17,1042,5808.68,984.62,5791.29,971.33Zm-399.14-464c157.79-59.75,216.63,39,217.9,86.29.49,18.14-26.88,26.42-52.87,25.13-45.06-2.29-122,19.1-192.65,84.49-46.53,43-94.61,24.72-100.34-11.53C5258.58,656.12,5256.94,558.49,5392.15,507.29Z"/><path class="cls-1" d="M2453,191.38c161.7,0,161.5-72.44,161.5-95.69,0-68.26-42.33-95.69-171.23-95.69-131.66,0-176.09,24.58-176.09,97.39C2267.17,166.77,2367.27,191.38,2453,191.38Z"/><path class="cls-1" d="M2605,463.69c2.4-63.87-7.63-104.9-31.59-129.77-27.87-28.93-80-41.84-169.12-41.84-71.84,0-100.21,11.17-120.41,33.19-18.89,20.61-18.05,77.73-15.16,114,10.43,131.17,9.71,563.51,8,625.83-4.37,157.44-9.68,254,120.52,275.08.66.07,166.52,14.95,250.43-90.83C2554.53,1205.52,2605,463.69,2605,463.69Z"/><path class="cls-1" d="M2112.63,761.55c0-598-697.3-452.85-796.92-394.85-132.29,77-38.16,244.23,9.16,270.18,163-97.48,468.23-120.38,468.23,71.72v51.88s-567.92-201.39-588.18,248.14c-7.82,173.6,125.42,326.87,305.78,326.87,215,0,282.69-182.63,282.69-182.63,0,118.3,23.88,194.62,175.89,182.63,119.44-9.42,148.34-64.73,169.36-93.33C2087.44,1226.89,2112.63,994.2,2112.63,761.55Zm-491.55,346.79c-72,0-121.26-64.37-124.33-114.87s42.73-181.64,296.35-124.19v21.07C1793.1,947.82,1763.49,1108.34,1621.08,1108.34Z"/><path class="cls-1" d="M648.19,625.48s349.74-344,430-475.84c16.15-25.81,32-62,16.8-89.45-19.68-35.51-86-55.87-182-55.87-179.74,0-191,32.36-212.7,79.31C564.72,377.39,350.48,512.1,350.48,512.1s12.48-267.92,15.29-316c1.18-53.52.85-133.31-31.17-166.07C316.66,11.73,289.76,2.81,252.34,2.81H116.75c-46,0-77.39,9-93.38,26.68-23,25.44-18,74.19-13.25,121.33C12,169.25,13.93,373.75,14.3,391.94c2.11,70.21-6.2,546.14-14,768.21C-1,1218.26.37,1278,32.08,1310.48c17.59,18,44,26.75,80.68,26.75H248.33c36.1,0,61.5-8.38,77.65-25.59,32-34.16,23.51-65.1,23.74-162.69l.82-362.71c176.94,65.92,238.12,551.87,538.24,551.87,160.1,0,240.66-164.84,225.51-243.62C1053.45,1120,707.86,752.11,648.19,625.48Z"/><path class="cls-1" d="M3760.3,291.2c0-110,13.23-210.65-36.42-247-62.3-45.61-267.51-60.38-314,5.93-23.59,33.7,12.54,199.85-.44,367.76,0,0-83.1-120.6-245.76-120.6-287,0-407.55,251.91-407.55,490,0,370.87,219.79,553.59,399.62,553.59,201.31,0,252.8-190.64,252.8-190.64-.06,48.94,7,190.64,168.72,190.64,157.3,0,199.16-70.58,214-90.22C3710.18,1225.37,3760.3,479,3760.3,291.2Zm-520.82,785.29c-99.86,0-180.81-117.36-180.81-262.12s80.95-262.12,180.81-262.12,180.8,117.35,180.8,262.12S3339.34,1076.49,3239.48,1076.49Z"/></g></g></svg>