<?xml version="1.0" standalone="no"?>
<!DOCTYPE svg PUBLIC "-//W3C//DTD SVG 20010904//EN"
 "http://www.w3.org/TR/2001/REC-SVG-20010904/DTD/svg10.dtd">
<svg version="1.0" xmlns="http://www.w3.org/2000/svg"
 width="2640.000000pt" height="2640.000000pt" viewBox="0 0 2640.000000 2640.000000"
 preserveAspectRatio="xMidYMid meet">
<metadata>
Created by potrace 1.11, written by Peter Selinger 2001-2013
</metadata>
<g transform="translate(0.000000,2640.000000) scale(0.100000,-0.100000)"
fill="#000000" stroke="none">
<path d="M8088 21772 c-7 -31 -13 -104 -13 -162 0 -95 3 -110 28 -159 38 -74
75 -114 178 -193 102 -80 135 -115 149 -166 14 -53 13 -86 -12 -229 -29 -172
-32 -546 -5 -693 47 -253 163 -481 297 -581 30 -23 136 -81 236 -130 203 -98
274 -152 318 -241 31 -61 35 -159 11 -228 -27 -75 -31 -76 -90 -21 -63 60
-136 98 -224 117 -68 14 -181 19 -181 8 0 -4 20 -28 44 -54 86 -91 127 -209
151 -422 37 -342 67 -543 102 -687 7 -30 179 -144 261 -173 48 -17 73 -19 155
-15 88 5 97 3 97 -12 0 -26 -46 -43 -131 -49 -84 -5 -157 12 -242 55 -53 26
-64 25 -48 -5 6 -11 8 -22 5 -25 -10 -9 44 -110 90 -168 136 -172 442 -306
881 -383 146 -26 134 -20 124 -63 -5 -21 -9 -198 -10 -393 l-1 -355 -33 70
c-18 39 -39 96 -46 128 -6 31 -15 57 -18 57 -4 0 -15 -16 -25 -35 -26 -47 -98
-119 -140 -139 -100 -47 -229 27 -251 145 -14 77 40 184 121 237 51 35 77 37
82 10 2 -11 -10 -24 -37 -37 -42 -22 -72 -58 -97 -116 -12 -29 -12 -43 -3 -76
18 -60 53 -89 106 -89 52 0 86 16 130 62 79 82 129 298 88 377 -21 42 -62 52
-240 61 -163 8 -213 19 -284 61 -19 11 -37 16 -41 12 -14 -17 -91 -412 -97
-499 -7 -115 3 -224 22 -224 21 0 27 -17 13 -39 -19 -31 16 -92 98 -171 86
-81 100 -89 222 -124 100 -28 187 -67 194 -88 7 -18 -9 -58 -23 -58 -6 0 -39
13 -73 29 -127 60 -135 51 -43 -42 110 -112 -50 -102 1570 -105 l1407 -2 0
-160 0 -160 -1809 0 c-1190 0 -1844 -4 -1912 -10 -668 -68 -1179 -481 -1395
-1126 -78 -234 -177 -740 -216 -1104 -18 -172 -15 -632 5 -820 40 -358 138
-847 221 -1100 175 -536 485 -893 892 -1029 172 -57 218 -61 792 -61 l522 0 0
598 c0 334 5 645 10 707 43 451 280 868 656 1150 191 144 411 243 660 297 98
21 111 22 1579 28 1461 6 1481 6 1565 27 341 85 607 269 795 552 101 153 162
302 202 497 17 83 18 178 18 1459 0 1122 -2 1384 -14 1445 -78 425 -363 779
-796 989 -163 80 -331 130 -558 166 -30 5 -37 10 -33 22 17 44 36 200 46 382
6 112 9 205 7 207 -2 3 -25 -13 -51 -34 -26 -21 -68 -49 -94 -62 -26 -12 -77
-37 -115 -56 -85 -42 -158 -64 -214 -64 -49 0 -49 1 -28 -85 15 -63 20 -222 7
-242 -4 -6 -19 -9 -35 -6 -22 4 -26 9 -21 26 11 34 7 238 -5 305 -7 34 -28
113 -47 175 -19 62 -37 142 -41 180 -3 37 -8 67 -9 67 -2 0 -20 -18 -40 -40
-50 -55 -152 -102 -304 -140 -241 -60 -323 -94 -401 -167 -27 -25 -60 -69 -74
-97 -28 -58 -50 -190 -40 -247 l7 -39 -35 0 -35 0 -6 113 c-4 61 -2 157 3 212
17 161 13 295 -10 408 -24 117 -49 176 -119 271 -55 76 -63 115 -35 183 8 20
13 38 11 41 -28 27 -180 -112 -239 -218 -85 -153 -86 -340 -2 -340 30 0 33
-20 7 -43 -22 -20 -55 -22 -70 -4 -5 6 -18 39 -27 71 -34 117 -4 258 75 358
17 20 30 43 30 50 0 36 -66 145 -122 205 -108 112 -216 173 -573 325 -351 149
-488 230 -620 363 -44 44 -89 97 -100 118 -11 20 -23 37 -27 37 -5 0 -8 -38
-8 -83 0 -154 45 -279 183 -509 95 -158 119 -205 145 -288 35 -110 45 -184 40
-303 -7 -149 -40 -246 -169 -493 -108 -210 -135 -288 -126 -372 9 -89 47 -151
153 -251 56 -52 91 -92 85 -96 -26 -15 -269 164 -322 238 -89 123 -73 249 63
492 39 69 72 145 89 205 l28 94 -31 51 c-90 146 -251 315 -381 399 -133 87
-361 187 -502 220 -29 7 -29 6 21 -46 171 -180 219 -344 274 -938 24 -258 35
-352 56 -465 33 -182 97 -369 172 -507 34 -62 36 -68 21 -84 -16 -15 -19 -11
-52 47 -184 328 -229 522 -257 1099 -17 340 -51 516 -128 665 -46 89 -164 209
-244 249 -59 29 -76 56 -35 56 32 0 206 -46 312 -81 116 -40 290 -124 387
-188 140 -93 306 -268 373 -394 11 -20 22 -37 25 -37 3 0 18 35 33 78 62 175
9 406 -145 629 -50 74 -232 273 -248 273 -4 0 1 -27 11 -61 21 -67 24 -124 9
-164 -17 -45 -30 -17 -30 63 0 90 -34 200 -72 233 -90 77 -344 231 -552 334
-127 62 -260 132 -295 155 -81 53 -172 139 -212 201 -36 56 -69 155 -69 205 0
19 -4 34 -8 34 -15 0 -119 -147 -151 -212 -79 -162 -81 -311 -6 -388 25 -26
33 -39 23 -43 -9 -3 -5 -13 15 -34 15 -16 27 -34 27 -40 0 -56 -105 38 -146
131 -15 34 -50 86 -78 116 -58 63 -102 147 -115 217 -5 27 -7 138 -4 248 7
231 -4 294 -62 382 -50 75 -122 124 -305 208 -215 99 -265 128 -332 197 l-57
57 -13 -57z m3754 -3133 c114 -24 229 -103 267 -183 39 -78 21 -149 -53 -212
-43 -37 -72 -41 -90 -12 -9 15 -4 23 26 49 67 54 67 123 1 191 -76 78 -190
112 -285 84 -70 -20 -117 -61 -159 -138 -33 -62 -34 -65 -34 -186 0 -96 -3
-122 -14 -122 -8 0 -11 -6 -7 -17 7 -16 -8 -33 -31 -33 -18 0 -36 129 -31 221
11 185 104 314 257 355 59 16 88 17 153 3z m1343 -348 c41 -19 88 -63 98 -93
5 -15 0 -18 -35 -18 -25 0 -49 7 -61 18 -15 13 -36 17 -96 16 -42 0 -86 -6
-98 -12 -25 -14 -143 -16 -143 -3 0 15 71 73 114 92 55 25 167 25 221 0z
m-1814 -935 c101 -22 184 -69 265 -150 106 -107 154 -220 154 -366 0 -174 -78
-328 -218 -427 -293 -209 -690 -81 -810 261 -70 200 8 456 177 581 136 99 280
133 432 101z"/>
<path d="M11131 17304 c-166 -44 -305 -193 -340 -362 -46 -223 62 -442 265
-539 72 -34 88 -38 180 -41 103 -4 180 10 247 45 44 22 26 26 -39 7 -156 -45
-329 38 -407 195 -29 59 -32 74 -32 156 0 77 4 98 27 147 34 73 103 142 176
176 49 23 70 27 152 27 84 0 102 -3 152 -28 74 -36 139 -102 174 -175 23 -47
28 -71 28 -139 1 -46 4 -83 8 -83 3 0 12 33 18 73 42 243 -123 491 -361 546
-62 15 -185 12 -248 -5z"/>
<path d="M15760 14820 c0 -355 -5 -653 -10 -705 -24 -205 -70 -360 -165 -550
-226 -454 -633 -774 -1135 -891 -69 -16 -192 -18 -1545 -24 -1328 -6 -1478 -8
-1555 -24 -540 -108 -964 -541 -1053 -1076 -14 -82 -17 -267 -21 -1345 -2
-687 -1 -1313 4 -1390 9 -148 31 -255 76 -365 149 -366 546 -681 1085 -859
139 -46 133 -37 110 -151 -16 -75 -71 -506 -71 -553 0 -6 10 -1 23 10 46 41
119 85 184 109 38 14 73 29 78 34 24 20 139 50 191 50 l57 0 -7 38 c-23 133
-26 177 -16 237 14 89 18 95 52 95 23 0 29 -4 24 -15 -18 -48 -28 -161 -23
-260 4 -80 15 -148 42 -250 20 -76 39 -167 42 -202 3 -35 8 -63 10 -63 2 0 16
13 29 30 14 16 58 46 97 65 67 33 111 45 362 104 180 42 298 122 353 239 25
53 27 66 27 195 l0 137 36 0 c23 0 39 -6 42 -14 9 -23 9 -180 2 -411 -6 -176
-5 -224 9 -298 21 -110 47 -177 94 -242 73 -101 82 -118 82 -151 0 -19 -7 -52
-16 -74 -9 -23 -14 -43 -11 -46 3 -3 23 4 45 15 83 42 190 175 233 290 25 66
30 172 10 218 -13 33 -42 50 -62 38 -7 -5 -9 1 -7 16 1 13 15 30 30 38 24 14
28 14 46 -2 25 -23 52 -118 52 -183 0 -87 -36 -183 -97 -257 -30 -37 -29 -52
8 -126 82 -164 235 -269 634 -436 416 -174 615 -302 731 -470 20 -30 41 -55
46 -55 4 0 8 35 8 78 0 153 -50 284 -215 562 -161 272 -197 482 -124 727 11
38 71 172 135 298 120 241 142 307 129 389 -14 81 -43 127 -157 243 -62 62
-108 113 -103 113 17 0 140 -73 199 -118 287 -219 299 -334 73 -709 -36 -60
-75 -129 -87 -154 l-22 -45 27 -55 c87 -170 252 -355 415 -464 117 -78 372
-192 472 -212 l31 -6 -40 40 c-86 86 -153 207 -187 338 -27 107 -55 334 -76
625 -11 157 -27 337 -36 400 -32 232 -105 458 -200 622 -49 85 -50 90 -30 107
11 9 22 -3 60 -66 104 -179 179 -369 215 -548 29 -142 39 -270 51 -600 14
-404 33 -515 116 -684 55 -111 136 -198 232 -249 59 -32 81 -62 45 -62 -10 0
-68 13 -129 30 -297 79 -557 218 -733 390 -80 78 -133 148 -199 264 l-50 87
-19 -53 c-14 -43 -18 -83 -18 -208 0 -153 1 -157 36 -258 20 -56 58 -139 85
-183 72 -119 263 -343 279 -327 3 3 -2 25 -10 49 -20 56 -22 148 -4 180 13 22
14 17 20 -66 3 -52 15 -119 28 -158 22 -66 24 -68 126 -145 144 -107 271 -185
480 -292 222 -113 320 -178 408 -268 82 -86 125 -170 134 -265 3 -37 9 -67 14
-67 13 0 128 159 159 220 53 105 73 229 50 309 -5 19 -24 50 -42 68 -23 24
-29 36 -21 41 9 6 4 18 -17 43 -21 26 -26 39 -18 47 24 24 113 -74 143 -158 8
-23 35 -65 60 -93 25 -29 63 -86 83 -127 l37 -74 0 -281 0 -280 27 -58 c48
-103 115 -156 317 -254 204 -99 295 -156 350 -220 l39 -46 11 39 c67 240 23
380 -169 532 -41 33 -87 72 -102 88 -53 57 -71 143 -48 224 6 19 13 55 16 80
2 25 9 72 15 105 6 33 13 148 16 255 8 311 -26 500 -129 708 -86 176 -151 232
-434 375 -218 111 -291 189 -302 322 -5 63 14 153 40 188 13 17 18 15 71 -37
32 -30 81 -66 110 -80 62 -31 171 -56 245 -56 l54 0 -48 53 c-52 58 -95 142
-118 231 -15 58 -20 98 -52 441 -8 94 -26 235 -40 315 -28 165 -22 157 -164
251 -95 63 -192 94 -264 85 -99 -13 -101 -12 -104 10 -2 17 5 23 45 35 96 27
209 11 326 -48 27 -13 51 -23 52 -21 8 8 -17 92 -40 139 -33 64 -142 179 -219
229 -167 111 -388 188 -740 259 -82 17 -150 31 -151 33 -1 2 1 30 6 63 11 76
14 489 4 615 l-7 95 23 -35 c26 -41 79 -182 79 -210 0 -35 18 -30 43 13 59
101 158 166 230 153 49 -9 113 -59 137 -105 25 -51 26 -123 1 -178 -32 -69
-143 -165 -171 -148 -21 13 -8 41 30 63 83 47 118 139 81 215 -45 93 -143 90
-229 -8 -51 -58 -81 -145 -89 -257 -7 -89 6 -130 45 -147 32 -15 196 -34 232
-28 53 11 180 -12 243 -43 33 -16 61 -29 62 -28 0 2 18 91 40 198 27 135 40
231 43 312 5 144 -4 232 -23 224 -21 -8 -27 9 -14 38 10 21 8 31 -14 68 -25
43 -92 111 -157 160 -22 17 -74 37 -135 53 -134 34 -209 72 -213 106 -5 39 20
55 55 35 15 -9 50 -25 76 -36 84 -35 87 -26 17 52 -55 62 -123 109 -202 141
l-53 21 -1302 -3 -1303 -3 0 161 0 161 2009 0 c1721 0 2020 2 2092 15 361 63
620 283 824 700 226 463 298 676 364 1077 54 323 64 439 64 733 0 279 -13 453
-54 725 -70 462 -215 1018 -329 1255 -50 103 -160 269 -243 366 -149 174 -358
298 -589 351 -83 18 -132 21 -458 24 -201 2 -461 5 -578 7 l-212 2 0 -615z
m-1219 -5514 c101 -22 184 -69 264 -150 205 -208 208 -513 7 -727 -206 -219
-539 -224 -751 -10 -145 145 -193 345 -129 536 86 257 345 407 609 351z m-421
-1766 c0 -5 9 -10 19 -10 25 0 31 -20 38 -120 20 -309 -191 -503 -459 -420
-77 24 -164 83 -203 139 -36 53 -44 124 -20 171 21 41 74 90 96 90 51 0 64
-28 24 -54 -92 -60 -56 -179 76 -251 65 -35 174 -46 229 -23 138 58 208 233
170 428 -6 32 -5 47 3 52 17 11 27 10 27 -2z m-1729 -133 c12 -45 28 -57 74
-57 47 0 98 18 155 56 33 22 47 25 110 22 l73 -3 -42 -53 c-53 -66 -103 -99
-174 -114 -133 -28 -277 50 -277 150 0 32 1 33 37 30 31 -2 38 -8 44 -31z"/>
<path d="M14290 9251 c-109 -35 -135 -63 -34 -36 76 20 154 12 233 -25 78 -37
136 -96 174 -178 27 -58 32 -78 32 -147 0 -69 -5 -89 -31 -145 -109 -230 -390
-287 -572 -116 -73 68 -105 141 -110 250 -3 66 -7 84 -14 71 -17 -28 -22 -175
-9 -237 30 -143 131 -271 267 -335 69 -33 87 -37 178 -41 158 -7 254 28 364
132 99 93 144 199 144 341 1 151 -49 264 -158 364 -58 53 -134 94 -205 110
-69 16 -197 12 -259 -8z"/>
</g>
</svg>
