<svg xmlns="http://www.w3.org/2000/svg" viewBox="0 0 150 112"><defs><style>.a{fill:#ff7200;}.b{fill:#007ec7;}.c{fill:#00446b;}</style></defs><title>logo</title><path class="a" d="M68.329,64.17a27.418,27.418,0,0,1-5.793-7.883,32.44,32.44,0,0,1-2.9-8.957L60,49.108c.066.3.116.593.2.885l.264.867L61,52.588c.2.569.45,1.119.676,1.677l-.5-1.232a12.9,12.9,0,0,1-.387-1.232l-.336-1.223a8.771,8.771,0,0,1-.267-1.226c-.13-.828-.25-1.659-.348-2.509-.033-.86-.052-1.739-.058-2.651a10.442,10.442,0,0,1,.42,2.177,4.906,4.906,0,0,0,.24,1.067,1.506,1.506,0,0,0,.359.656,34.844,34.844,0,0,0,4.6,11.967,31.36,31.36,0,0,0,8.875,9.367A4.649,4.649,0,0,1,73.074,69a7.819,7.819,0,0,1-.988-.574,6.2,6.2,0,0,1-1.5-1.385c-.41-.5-.767-1.01-1.133-1.484A15.865,15.865,0,0,0,68.329,64.17Z"/><path class="a" d="M75.746,65.728a19.907,19.907,0,0,1-7.2-7.806A22.519,22.519,0,0,0,75.746,65.728Z"/><path class="a" d="M79.234,66.141a25.643,25.643,0,0,1-5.9-3.7,19.884,19.884,0,0,1-4.892-7.12,29.249,29.249,0,0,0,4.543,6.166A27.314,27.314,0,0,0,79.234,66.141Z"/><path class="a" d="M77.084,55.671c-.236-.261-.481-.507-.7-.768l-.569-.828c.276.3.517.63.809.918s.6.564.885.85C77.3,55.793,77.118,55.76,77.084,55.671Z"/><path class="b" d="M81.671,12.668a27.418,27.418,0,0,1,5.793,7.883,32.44,32.44,0,0,1,2.9,8.957L90,27.73c-.066-.3-.116-.593-.2-.885l-.264-.867L89,24.249c-.2-.569-.45-1.119-.676-1.677l.5,1.232a12.9,12.9,0,0,1,.387,1.232l.336,1.223a8.772,8.772,0,0,1,.267,1.226c.13.828.25,1.659.348,2.509.033.86.052,1.739.058,2.651a10.444,10.444,0,0,1-.42-2.177,4.906,4.906,0,0,0-.24-1.067,1.506,1.506,0,0,0-.359-.656,34.844,34.844,0,0,0-4.6-11.967,31.36,31.36,0,0,0-8.875-9.367,4.649,4.649,0,0,1,1.195.423,7.819,7.819,0,0,1,.988.574,6.2,6.2,0,0,1,1.5,1.385c.41.5.767,1.01,1.133,1.484A15.866,15.866,0,0,0,81.671,12.668Z"/><path class="b" d="M88.714,42.093l.51-2.476A18.145,18.145,0,0,1,88.714,42.093Z"/><path class="b" d="M36.071,21.4c-.173.4-.393.768-.535,1.175s-.305.8-.466,1.181c.118-.406.263-.807.419-1.207A11.163,11.163,0,0,1,36.071,21.4Z"/><path class="b" d="M71.269,8.378c-.478-.117-.947-.251-1.416-.4A29.662,29.662,0,0,0,58.927,5.553c1.045.054,2.109,0,3.173.144l1.607.149c.537.056,1.062.189,1.593.286s1.061.212,1.585.34q.77.249,1.528.522a11.685,11.685,0,0,1,1.479.605C70.362,7.847,70.823,8.107,71.269,8.378Z"/><path class="b" d="M74.254,11.109a19.907,19.907,0,0,1,7.2,7.806A22.519,22.519,0,0,0,74.254,11.109Z"/><path class="b" d="M40.731,44.138a.23.23,0,0,1,.246.005.571.571,0,0,0,.2.141l.15.4.191.374.378.756c.129.251.239.517.383.76l.45.72a6.319,6.319,0,0,1-.7-.516,8.74,8.74,0,0,1-.522-1.343,2.842,2.842,0,0,0-.287-.574A6.276,6.276,0,0,0,40.731,44.138Z"/><path class="b" d="M36.515,20.548l0-.1a6.259,6.259,0,0,1,.4-.787L37,19.586C36.824,19.9,36.676,20.224,36.515,20.548Z"/><path class="b" d="M40.128,42.831a1.111,1.111,0,0,0,.386-.326,6.575,6.575,0,0,0,.317.884l.341.882a1.337,1.337,0,0,0-.194-.128C40.688,43.818,40.515,43.171,40.128,42.831Z"/><path class="b" d="M40.347,29.034c.113-.363-.115-.789-.141-.992.481-.913,1.139-1.71,1.728-2.7a7.916,7.916,0,0,0,.213-.927A4.529,4.529,0,0,0,42.792,24a21.254,21.254,0,0,0-2.913,7.216A20.842,20.842,0,0,1,40.347,29.034Z"/><path class="b" d="M82.987,41.209c-.134.515-.288,1.037-.455,1.563A15.059,15.059,0,0,1,81.86,44.3a25.469,25.469,0,0,1-1.692,2.943l-1,1.368-.48.688-.525.645c-.346.43-.657.884-.979,1.322a15.708,15.708,0,0,0-.967,1.294c.486-.378,1.021-.757,1.52-1.2l1.46-1.409a32.823,32.823,0,0,0,2.529-3.066c.788-.98,1.361-1.942,1.934-2.636.6-.684,1-1.181,1.437-1.243s.495.339.346,1.069A15.574,15.574,0,0,1,84.175,46.9a40.005,40.005,0,0,1-4.8,6.091l.972-.639a3.282,3.282,0,0,0-1.2,1.117,17.992,17.992,0,0,0,1.812-1.3l.916-.656a2.594,2.594,0,0,1,.7-.406c-.108.352-.2.719-.33,1.067a14.569,14.569,0,0,0,2.151-1.8c.72-.759,1.4-1.672,2.108-2.584.6-.963,1.259-1.931,1.816-2.86a24.1,24.1,0,0,1,1.559-2.524,46.105,46.105,0,0,1-7.318,10.4,36.6,36.6,0,0,1-10.9,7.9A31.907,31.907,0,0,1,57.978,63.6,29.2,29.2,0,0,1,44.522,60a34.935,34.935,0,0,1-18.131-23.07c-.045-.232-.089-.507-.13-.816a6.493,6.493,0,0,1-.079-1.022c-.014-.741-.008-1.587.016-2.475a28.593,28.593,0,0,1,.841-5.251,36.273,36.273,0,0,1,2.42-8.246L30.4,17.16l.479-.98.552-.938,1.115-1.885,1.259-1.8.724-.918.8-.847c.542-.556,1.075-1.127,1.648-1.65A31,31,0,0,1,40.67,5.318l.979-.631.492-.311.515-.272q1.033-.54,2.079-1.057c.7-.346,1.439-.593,2.162-.884l1.095-.413c.366-.136.749-.223,1.124-.335L51.386.8,53.716.4c.391-.057.777-.145,1.172-.173L56.075.131C56.868.087,57.662-.016,58.462,0L60.87.051a9.581,9.581,0,0,1,1.206.087l1.208.135a41.948,41.948,0,0,1,4.837.857,5.575,5.575,0,0,1,2.891,1.712c.124.261-.027.446-.581.472a14.777,14.777,0,0,1-3.015-.429,41.085,41.085,0,0,0-15.167.5c.481-.554,2.915-.812,4.024-1.184-.477.011-.946.014-1.405.041l-1.347.165a18.088,18.088,0,0,0-2.6.463c-.84.227-1.7.412-2.527.725s-1.669.655-2.533,1.029L47.6,3.894a16.485,16.485,0,0,1,1.762-.669,29.918,29.918,0,0,1,3.642-1,32.293,32.293,0,0,0-9.189,3.421,30.781,30.781,0,0,0-7.962,6.377,9.521,9.521,0,0,1-1.357,1.27,14.8,14.8,0,0,0-1.492,1.247,10.389,10.389,0,0,0-1.375,1.628,6.96,6.96,0,0,0-.923,2.326,33.267,33.267,0,0,1,9.31-9.706,35.556,35.556,0,0,1,12.232-5.4.216.216,0,0,0-.037.043,29.927,29.927,0,0,1,11.377-.549l-3.461-.2,1.044.091c.346.047.689.114,1.032.17l2.048.347c.672.154,1.335.339,2,.505a16.276,16.276,0,0,1,1.965.578l1.926.682c.64.228,1.244.552,1.866.825a30.843,30.843,0,0,1,3.579,1.936,36.844,36.844,0,0,0-11.045-3.36,32.944,32.944,0,0,0-11.676.439,30.1,30.1,0,0,0-10.7,4.679,27.208,27.208,0,0,0-7.8,8.317c.382-.378.75-.784,1.109-1.213l.533-.658.581-.639c.385-.434.766-.882,1.146-1.334s.824-.848,1.233-1.273a13.312,13.312,0,0,1,5.314-3.589A30.572,30.572,0,0,0,31.45,24.54c.1-.509.2-1.012.34-1.5a8.781,8.781,0,0,0-.718,1.485c-.209.513-.407,1.036-.594,1.565a31.769,31.769,0,0,0-.767,3.291c-.121,1.125-.243,2.252-.3,3.37l-.006,1.674a15.636,15.636,0,0,0,.026,1.651l.056,1.174-.056-1.174A30.51,30.51,0,0,1,31.45,24.54c-.411,1.72-.869,3.511-1.279,5.7.2-.581.481-1.272.737-2.028a24.187,24.187,0,0,1,.842-2.362l.534-1.59c.169-.532.441-1.027.658-1.539.235-.506.454-1.019.705-1.513l.842-1.435a21.3,21.3,0,0,0-2.784,9.332,30.172,30.172,0,0,1,6.034-12.076,27.268,27.268,0,0,0-3.579,6.385,26.984,26.984,0,0,0-2.616,12.087,3.958,3.958,0,0,1-.041-.483,7.165,7.165,0,0,0,.071.961l.085,1.24a9.921,9.921,0,0,0,.128,1.24c.147.819.267,1.648.45,2.465.222.719.483,1.42.768,2.1a19.762,19.762,0,0,0,1.075,1.927l.28.675c-.3-.37-.545-.515-.245.34.17.452.361.9.568,1.352a9.036,9.036,0,0,0,.7,1.324c.272.425.554.849.842,1.273.147.21.283.43.443.633l.5.6,1,1.217c.338.407.73.773,1.088,1.175.373.387.706.823,1.1,1.205s.772.787,1.148,1.209a5.357,5.357,0,0,0,.687.666c.271.207.567.416.881.627a12.989,12.989,0,0,0,2.11,1.211,1.2,1.2,0,0,0,.837.394c.336.148.66.329,1.01.454a22.168,22.168,0,0,0,2.514.949c-.811-.321-1.656-.643-2.514-.949-.314-.128-.6-.308-.9-.451a1.966,1.966,0,0,1,.981.208A29.207,29.207,0,0,1,34.362,45.63c.283.29.638.714.81.875a12.494,12.494,0,0,1-1.091-1.549l-.6-1.424c-.218-.469-.329-.975-.5-1.461-.155-.492-.324-.981-.472-1.476l-.349-1.512a7.656,7.656,0,0,0,.7,1.572,30.992,30.992,0,0,1-.66-8.686,27.811,27.811,0,0,1,1.96-8.549l.453-.933a6.983,6.983,0,0,1,.49-.909l1.081-1.754c.381-.569.82-1.1,1.226-1.643.213-.266.4-.552.633-.8l.694-.748a30.92,30.92,0,0,1,2.932-2.792,31.71,31.71,0,0,1,3.315-2.276,20.39,20.39,0,0,0-7.245,5.468,27.011,27.011,0,0,1,9.706-7.908A24.576,24.576,0,0,1,59.689,6.751c-.377.13-.784.25-1.194.367s-.82.3-1.209.454A4.968,4.968,0,0,0,55.443,8.64c.027.082.2.118.427.142.228.042.505.071.734.1.458.057.718.113.014.275a40.873,40.873,0,0,0-6.248,2.217c-.406.2-.787.4-1.136.6a8.942,8.942,0,0,0-.9.735,3.31,3.31,0,0,0-1.077,1.726c-.01.16.327.194.8.182.5.027,1.134.026,1.711.046a7.211,7.211,0,0,1,.8.057,3.2,3.2,0,0,1,.612.167c.3.129.38.3.059.525a9.665,9.665,0,0,0-.975.6c-.36.248-.79.467-1.207.778s-.857.649-1.326.982l-1.342,1.174c-.569.412-1.084.931-1.653,1.429-.086.047-.11.243-.147.475a25.978,25.978,0,0,0-3.5,5.41l-.373.676a6.418,6.418,0,0,0-.3.706,2.04,2.04,0,0,1-.6.522c.035.354-.011.681,0,1.02-.171.667-.391,1.326-.538,2-.093.677-.237,1.35-.307,2.028l-.261,1.135A5.94,5.94,0,0,0,38.5,35.5c.119-.024.268-.154.4-.017l.073,1.282a3.307,3.307,0,0,0,.074.636l.106.632a11.638,11.638,0,0,0,.233,1.26l.338,1.237c.006.363.044.7.063,1.042a6.45,6.45,0,0,1-.039,1.011,7.883,7.883,0,0,1,1.255,1.427c.368.618.876,1.252,1.31,1.975a11.762,11.762,0,0,0,.748,1.041c.267.338.491.718.785,1.029l.856.923c.143.146.271.3.423.429l.454.358.023-.032.848.749c.276.26.61.446.911.677l.924.673,1,.574a5.408,5.408,0,0,1,.461.684c.419.027.806.15,1.014.153.268.155.523.313.77.472.124.078.243.164.366.238l.375.2c.493.264.966.539,1.447.82.21-.021.659-.3,1.057-.224.4.1.788.2,1.176.282.391.062.782.075,1.166.11l.672.108a3.605,3.605,0,0,0,.679.076l1.38.085a22.839,22.839,0,0,0,9.235-1.526,1.037,1.037,0,0,1,.348.356,2.087,2.087,0,0,1,.7-.491,1.949,1.949,0,0,0,.674-.436.235.235,0,0,0,0,.255c1.083-1.055,1.571-.8,2.7-1.549a6.481,6.481,0,0,0,.551-.718,3.18,3.18,0,0,0,.358-.259,4.735,4.735,0,0,0,1.1-.5,3.758,3.758,0,0,0,.92-.74c.27-.29.528-.6.79-.915l.4-.479.362-.524.865-.973a10.849,10.849,0,0,0,.789-1.04l.776-1.068.662-1.144a10.11,10.11,0,0,1,.986-1.357C82.366,41.947,82.678,41.642,82.987,41.209Z"/><path class="b" d="M42.945,47.644a22.185,22.185,0,0,0,2.786,3.532c-.3-.271-.608-.519-.909-.764-.15-.123-.3-.242-.443-.367s-.258-.278-.38-.42A3.879,3.879,0,0,1,42.945,47.644Z"/><path class="b" d="M52.393,15.475a11.408,11.408,0,0,0,1.938.112l-1.242.334-1.2.469c-.2.08-.406.143-.6.233l-.573.3c-.379.2-.779.37-1.15.589a20.464,20.464,0,0,0-2.142,1.459l-.517.4a3.306,3.306,0,0,0-.5.421l-.954.9-.031-.025c.243-.253.507-.513.783-.78.14-.13.273-.274.427-.4l.483-.353.972-.725c.352-.2.7-.411,1.031-.623l.489-.323c.162-.1.336-.181.5-.276a9.892,9.892,0,0,0,.906-.569c.27-.215.55-.36.783-.548A3.357,3.357,0,0,0,52.393,15.475Z"/><path class="b" d="M40.977,44.143a1.337,1.337,0,0,1,.194.128l0,.013A.571.571,0,0,1,40.977,44.143Z"/><path class="b" d="M58.921,7.692l.455.015a33.394,33.394,0,0,0-3.429.4c.448-.107.928-.2,1.427-.271A8.65,8.65,0,0,1,58.921,7.692Z"/><path class="b" d="M70.766,10.7a25.643,25.643,0,0,1,5.9,3.7,19.885,19.885,0,0,1,4.892,7.12,29.251,29.251,0,0,0-4.543-6.166A27.315,27.315,0,0,0,70.766,10.7Z"/><path class="b" d="M59.081,14.636a12.6,12.6,0,0,1,2.118.582,14.059,14.059,0,0,0-2.119-.181C59.213,14.92,59.1,14.758,59.081,14.636Z"/><path class="b" d="M49.636,9.971,50.28,9.7l-1.524.967C48.921,10.517,49.347,10.217,49.636,9.971Z"/><path class="b" d="M66.343,16.8a4.1,4.1,0,0,0-.7-.318l-.717-.289a4.936,4.936,0,0,0,.972,0A2.924,2.924,0,0,0,66.343,16.8Z"/><path class="b" d="M72.916,21.167c.236.261.481.507.7.768l.569.828c-.276-.3-.517-.63-.809-.918s-.6-.564-.885-.85C72.7,21.045,72.882,21.078,72.916,21.167Z"/><path class="a" d="M61.286,34.744l-.51,2.476A18.146,18.146,0,0,1,61.286,34.744Z"/><path class="a" d="M113.929,55.437c.173-.4.393-.768.535-1.175s.305-.8.466-1.181c-.118.406-.263.807-.419,1.207A11.169,11.169,0,0,1,113.929,55.437Z"/><path class="a" d="M78.731,68.459c.478.117.947.251,1.416.4a29.662,29.662,0,0,0,10.926,2.427c-1.045-.054-2.109,0-3.173-.144l-1.607-.149c-.537-.056-1.062-.189-1.593-.286s-1.061-.212-1.585-.34q-.77-.249-1.528-.522a11.686,11.686,0,0,1-1.479-.605C79.638,68.99,79.177,68.731,78.731,68.459Z"/><path class="a" d="M109.269,32.7a.23.23,0,0,1-.246-.005.571.571,0,0,0-.2-.141l-.15-.4-.191-.374-.378-.756c-.129-.251-.239-.517-.383-.76l-.45-.72a6.315,6.315,0,0,1,.7.516,8.74,8.74,0,0,1,.522,1.343,2.841,2.841,0,0,0,.287.574A6.276,6.276,0,0,0,109.269,32.7Z"/><path class="a" d="M113.485,56.29l0,.1a6.259,6.259,0,0,1-.4.787l-.085.071C113.176,56.942,113.324,56.613,113.485,56.29Z"/><path class="a" d="M109.872,34.007a1.111,1.111,0,0,0-.386.326,6.575,6.575,0,0,0-.317-.884l-.341-.882a1.337,1.337,0,0,0,.194.128C109.312,33.02,109.485,33.667,109.872,34.007Z"/><path class="a" d="M109.653,47.8c-.113.363.115.789.141.992-.481.913-1.139,1.71-1.728,2.7a7.915,7.915,0,0,0-.213.927,4.529,4.529,0,0,0-.645.411,21.254,21.254,0,0,0,2.913-7.216A20.842,20.842,0,0,1,109.653,47.8Z"/><path class="a" d="M67.013,35.629c.134-.515.288-1.037.455-1.563a15.058,15.058,0,0,1,.673-1.529,25.469,25.469,0,0,1,1.692-2.943l1-1.368.48-.688.525-.645c.346-.43.657-.884.979-1.322a15.708,15.708,0,0,0,.967-1.294c-.486.378-1.021.757-1.52,1.2L70.8,26.884a32.823,32.823,0,0,0-2.529,3.066c-.788.98-1.361,1.942-1.934,2.636-.6.684-1,1.181-1.437,1.243s-.495-.339-.346-1.069a15.574,15.574,0,0,1,1.269-2.822,40,40,0,0,1,4.8-6.091l-.972.639a3.282,3.282,0,0,0,1.2-1.117,17.992,17.992,0,0,0-1.812,1.3l-.916.656a2.593,2.593,0,0,1-.7.406c.108-.352.2-.719.33-1.067a14.57,14.57,0,0,0-2.151,1.8c-.72.759-1.4,1.672-2.108,2.584-.6.963-1.259,1.931-1.816,2.86a24.1,24.1,0,0,1-1.559,2.524,46.1,46.1,0,0,1,7.318-10.4,36.6,36.6,0,0,1,10.9-7.9,31.906,31.906,0,0,1,13.681-2.893,29.2,29.2,0,0,1,13.455,3.6,34.935,34.935,0,0,1,18.131,23.07c.045.232.089.507.13.816a6.493,6.493,0,0,1,.079,1.022c.014.741.008,1.587-.016,2.475a28.6,28.6,0,0,1-.841,5.251,36.275,36.275,0,0,1-2.42,8.246l-.941,1.958-.479.98-.552.938-1.115,1.885-1.259,1.8-.724.918-.8.847c-.542.556-1.075,1.127-1.648,1.65a31,31,0,0,1-3.694,2.827l-.979.631-.492.311-.515.272q-1.033.54-2.079,1.057c-.7.346-1.439.593-2.162.884l-1.095.413c-.366.136-.749.223-1.124.335l-2.271.613-2.329.406c-.391.057-.777.145-1.172.173l-1.187.093c-.793.044-1.586.148-2.386.129l-2.408-.049a9.579,9.579,0,0,1-1.206-.087l-1.208-.135a41.947,41.947,0,0,1-4.837-.857A5.575,5.575,0,0,1,78.987,74c-.124-.261.027-.446.581-.472a14.776,14.776,0,0,1,3.015.429,41.085,41.085,0,0,0,15.167-.5c-.481.554-2.915.812-4.024,1.184.477-.011.946-.014,1.405-.041l1.347-.165a18.087,18.087,0,0,0,2.6-.463c.84-.227,1.7-.412,2.527-.725s1.669-.655,2.533-1.029l-1.736.734a16.486,16.486,0,0,1-1.762.669,29.917,29.917,0,0,1-3.642,1,32.293,32.293,0,0,0,9.189-3.421,30.781,30.781,0,0,0,7.962-6.377,9.521,9.521,0,0,1,1.357-1.27,14.8,14.8,0,0,0,1.492-1.247,10.389,10.389,0,0,0,1.375-1.628,6.961,6.961,0,0,0,.923-2.326,33.268,33.268,0,0,1-9.31,9.706,35.556,35.556,0,0,1-12.232,5.4.216.216,0,0,0,.037-.043,29.927,29.927,0,0,1-11.377.549l3.461.2-1.044-.091c-.346-.047-.689-.114-1.032-.17l-2.048-.347c-.672-.154-1.335-.339-2-.505a16.274,16.274,0,0,1-1.965-.578l-1.926-.682c-.64-.228-1.244-.552-1.866-.825a30.843,30.843,0,0,1-3.579-1.936,36.844,36.844,0,0,0,11.045,3.36,32.944,32.944,0,0,0,11.676-.439,30.1,30.1,0,0,0,10.7-4.679,27.207,27.207,0,0,0,7.8-8.317c-.382.378-.75.784-1.109,1.213l-.533.658-.581.639c-.385.434-.766.882-1.146,1.334s-.824.848-1.233,1.273a13.312,13.312,0,0,1-5.314,3.589A30.572,30.572,0,0,0,118.55,52.3c-.1.509-.2,1.012-.34,1.5a8.781,8.781,0,0,0,.718-1.485c.209-.513.407-1.036.594-1.565a31.769,31.769,0,0,0,.767-3.291c.121-1.125.243-2.252.3-3.37l.006-1.674a15.636,15.636,0,0,0-.026-1.651l-.056-1.174.056,1.174A30.51,30.51,0,0,1,118.55,52.3c.411-1.72.869-3.511,1.279-5.7-.2.581-.481,1.272-.737,2.028a24.187,24.187,0,0,1-.842,2.362l-.534,1.59c-.169.532-.441,1.027-.658,1.539-.235.506-.454,1.019-.705,1.513l-.842,1.435a21.3,21.3,0,0,0,2.784-9.332A30.172,30.172,0,0,1,112.261,59.8a27.268,27.268,0,0,0,3.579-6.385,26.984,26.984,0,0,0,2.616-12.087,3.959,3.959,0,0,1,.041.483,7.159,7.159,0,0,0-.071-.961l-.085-1.24a9.928,9.928,0,0,0-.128-1.24c-.147-.819-.267-1.648-.45-2.465-.222-.719-.483-1.42-.768-2.1a19.762,19.762,0,0,0-1.075-1.927l-.28-.675c.3.37.545.515.245-.34-.17-.452-.361-.9-.568-1.352a9.036,9.036,0,0,0-.7-1.324c-.272-.425-.554-.849-.842-1.273-.147-.21-.283-.43-.443-.633l-.5-.6-1-1.217c-.338-.407-.73-.773-1.088-1.175-.373-.387-.706-.823-1.1-1.205s-.772-.787-1.148-1.209a5.354,5.354,0,0,0-.687-.666c-.271-.206-.567-.416-.881-.627a12.989,12.989,0,0,0-2.11-1.211,1.2,1.2,0,0,0-.837-.394c-.336-.148-.66-.329-1.01-.454a22.169,22.169,0,0,0-2.514-.949c.811.321,1.656.643,2.514.949.314.128.6.308.9.451a1.966,1.966,0,0,1-.981-.208,29.208,29.208,0,0,1,12.747,13.436c-.283-.29-.638-.714-.81-.875a12.494,12.494,0,0,1,1.091,1.549l.6,1.424c.218.469.329.975.5,1.461.155.492.324.981.472,1.476l.349,1.512a7.658,7.658,0,0,0-.7-1.572,30.991,30.991,0,0,1,.66,8.686,27.811,27.811,0,0,1-1.96,8.549l-.453.933a6.983,6.983,0,0,1-.49.909l-1.081,1.754c-.381.569-.82,1.1-1.226,1.643-.213.266-.4.552-.633.8l-.694.748A30.924,30.924,0,0,1,108.33,63a31.71,31.71,0,0,1-3.315,2.276,20.39,20.39,0,0,0,7.245-5.468,27.011,27.011,0,0,1-9.706,7.908,24.576,24.576,0,0,1-12.245,2.374c.377-.13.784-.25,1.194-.367s.82-.3,1.209-.454A4.968,4.968,0,0,0,94.557,68.2c-.027-.082-.2-.118-.427-.142-.228-.042-.505-.071-.734-.1-.458-.057-.718-.113-.014-.275a40.874,40.874,0,0,0,6.248-2.216c.406-.2.787-.4,1.136-.6a8.94,8.94,0,0,0,.9-.735,3.309,3.309,0,0,0,1.077-1.726c.01-.16-.327-.194-.8-.182-.5-.027-1.134-.026-1.711-.046a7.213,7.213,0,0,1-.8-.057,3.2,3.2,0,0,1-.612-.167c-.3-.129-.38-.3-.059-.525a9.665,9.665,0,0,0,.975-.6c.36-.248.79-.467,1.207-.778s.857-.649,1.326-.982l1.342-1.174c.569-.412,1.084-.931,1.653-1.429.086-.047.11-.243.147-.475a25.978,25.978,0,0,0,3.5-5.41l.373-.676a6.424,6.424,0,0,0,.3-.706,2.04,2.04,0,0,1,.6-.522c-.035-.354.011-.681,0-1.02.171-.667.391-1.326.538-2,.093-.677.237-1.35.307-2.028l.261-1.135a5.94,5.94,0,0,0,.206-1.154c-.119.024-.268.154-.4.017l-.073-1.282a3.307,3.307,0,0,0-.074-.636l-.106-.632a11.638,11.638,0,0,0-.233-1.26l-.338-1.237c-.006-.363-.044-.7-.063-1.042a6.45,6.45,0,0,1,.039-1.011,7.884,7.884,0,0,1-1.255-1.427c-.368-.618-.876-1.252-1.31-1.975a11.762,11.762,0,0,0-.748-1.041c-.267-.338-.491-.718-.785-1.029l-.856-.923c-.143-.146-.271-.3-.423-.429l-.454-.358-.023.032-.848-.749c-.276-.26-.61-.446-.911-.677L101.712,25l-1-.574a5.409,5.409,0,0,1-.461-.684c-.419-.027-.806-.15-1.014-.153-.268-.155-.523-.313-.77-.473-.124-.078-.243-.164-.366-.238l-.375-.2c-.493-.264-.966-.539-1.447-.82-.21.021-.659.3-1.057.224-.4-.1-.788-.2-1.176-.282-.391-.062-.782-.075-1.166-.11l-.672-.108a3.606,3.606,0,0,0-.679-.076l-1.38-.085a22.839,22.839,0,0,0-9.235,1.526,1.037,1.037,0,0,1-.348-.356,2.087,2.087,0,0,1-.7.491,1.949,1.949,0,0,0-.674.436.235.235,0,0,0,0-.255c-1.083,1.055-1.571.8-2.7,1.549a6.48,6.48,0,0,0-.551.718,3.181,3.181,0,0,0-.358.259,4.735,4.735,0,0,0-1.1.5,3.758,3.758,0,0,0-.92.74c-.27.29-.528.6-.79.915l-.4.479-.362.524-.865.973a10.847,10.847,0,0,0-.789,1.04l-.776,1.068-.662,1.144a10.112,10.112,0,0,1-.986,1.357C67.634,34.891,67.322,35.2,67.013,35.629Z"/><path class="a" d="M107.055,29.194a22.184,22.184,0,0,0-2.786-3.532c.3.271.608.519.909.764.15.123.3.242.443.367s.258.278.38.42A3.879,3.879,0,0,1,107.055,29.194Z"/><path class="a" d="M97.607,61.362a11.406,11.406,0,0,0-1.938-.112l1.242-.334,1.2-.469c.2-.08.406-.143.6-.233l.573-.3c.379-.2.779-.37,1.15-.589a20.467,20.467,0,0,0,2.142-1.459l.517-.4a3.306,3.306,0,0,0,.5-.421l.954-.9.031.025c-.243.253-.507.513-.783.78-.14.13-.273.274-.427.4l-.483.353-.972.725c-.352.2-.7.411-1.031.623l-.489.323c-.162.1-.336.181-.5.276a9.894,9.894,0,0,0-.906.569c-.27.215-.55.36-.783.548A3.357,3.357,0,0,0,97.607,61.362Z"/><path class="a" d="M109.023,32.695a1.337,1.337,0,0,1-.194-.128l0-.013A.571.571,0,0,1,109.023,32.695Z"/><path class="a" d="M91.079,69.146l-.455-.015a33.392,33.392,0,0,0,3.429-.4c-.448.107-.928.2-1.427.271A8.651,8.651,0,0,1,91.079,69.146Z"/><path class="a" d="M90.919,62.2A12.6,12.6,0,0,1,88.8,61.62a14.058,14.058,0,0,0,2.119.181C90.787,61.917,90.9,62.08,90.919,62.2Z"/><path class="a" d="M100.364,66.867l-.644.268,1.524-.967C101.079,66.321,100.653,66.621,100.364,66.867Z"/><path class="a" d="M83.657,60.041a4.1,4.1,0,0,0,.7.318l.717.289a4.936,4.936,0,0,0-.972,0A2.924,2.924,0,0,0,83.657,60.041Z"/><path class="c" d="M0,111.811V95.049H3.723a6.487,6.487,0,0,1,1.79.261,5.124,5.124,0,0,1,1.66.817,4.309,4.309,0,0,1,1.221,1.447,4.5,4.5,0,0,1,.474,2.145,5.594,5.594,0,0,1-.3,1.8,4.387,4.387,0,0,1-.936,1.577,4.539,4.539,0,0,1-1.648,1.114,6.319,6.319,0,0,1-2.406.415H1v7.183Zm1-8.132H3.6a4.768,4.768,0,0,0,2.087-.4,3.76,3.76,0,0,0,1.316-1.008,3.553,3.553,0,0,0,.675-1.3,4.873,4.873,0,0,0,.19-1.268,3.6,3.6,0,0,0-.3-1.459,3.5,3.5,0,0,0-.854-1.185,3.95,3.95,0,0,0-1.339-.794,5.1,5.1,0,0,0-1.755-.285H1Z"/><path class="c" d="M12.613,111.811V95.049h3.723a6.487,6.487,0,0,1,1.79.261,5.124,5.124,0,0,1,1.66.817,4.309,4.309,0,0,1,1.221,1.447,4.5,4.5,0,0,1,.474,2.145,5.393,5.393,0,0,1-.688,2.644,4.223,4.223,0,0,1-2.206,1.86q.166.261.546.89t.854,1.41q.474.782,1,1.648t.984,1.624q.462.76.794,1.3c.22.364.37.6.45.712H22.025q-.1-.142-.391-.64t-.712-1.186q-.415-.687-.9-1.482t-.948-1.552q-.462-.758-.854-1.411t-.628-1.031q-.332.048-.675.083a6.9,6.9,0,0,1-.723.036H13.609v7.183Zm1-8.132h2.608a4.663,4.663,0,0,0,2.087-.415,3.822,3.822,0,0,0,1.316-1.032,3.667,3.667,0,0,0,.675-1.316,4.873,4.873,0,0,0,.19-1.268,3.453,3.453,0,0,0-.3-1.422,3.393,3.393,0,0,0-.854-1.162A4.228,4.228,0,0,0,18,96.27a4.935,4.935,0,0,0-1.755-.3H13.609Z"/><path class="c" d="M24.918,103.442a8.269,8.269,0,0,1,.675-3.331,8.974,8.974,0,0,1,1.826-2.726,8.452,8.452,0,0,1,2.7-1.849,8.569,8.569,0,0,1,6.674,0,8.714,8.714,0,0,1,4.588,4.575,8.551,8.551,0,0,1,0,6.662,8.621,8.621,0,0,1-1.849,2.715,8.826,8.826,0,0,1-2.739,1.837,8.581,8.581,0,0,1-6.674,0,8.567,8.567,0,0,1-2.7-1.837,8.814,8.814,0,0,1-1.826-2.715A8.262,8.262,0,0,1,24.918,103.442Zm.971.024a7.443,7.443,0,0,0,.593,2.951,7.628,7.628,0,0,0,1.625,2.418,7.847,7.847,0,0,0,2.394,1.636,7.134,7.134,0,0,0,2.928.6,7.383,7.383,0,0,0,2.964-.6,7.887,7.887,0,0,0,2.442-1.636,7.691,7.691,0,0,0,1.648-2.418,7.6,7.6,0,0,0,0-5.939,7.669,7.669,0,0,0-4.055-4.066,7.5,7.5,0,0,0-5.9,0,7.663,7.663,0,0,0-2.418,1.648,7.762,7.762,0,0,0-1.625,2.43A7.5,7.5,0,0,0,25.89,103.466Z"/><path class="c" d="M53.628,95.049V96H48.981v15.813h-.971V96h-4.6v-.948Z"/><path class="c" d="M57.231,111.811V95.049H67.5v.9h-9.27v6.97h8.322v.9H58.227v7.065h9.6v.925Z"/><path class="c" d="M77.169,112a6.544,6.544,0,0,1-2.252-.378,5.008,5.008,0,0,1-1.8-1.114,5.226,5.226,0,0,1-1.2-1.814,6.478,6.478,0,0,1-.438-2.454V95.049h1v11.119a5.621,5.621,0,0,0,.355,2.051,4.635,4.635,0,0,0,.972,1.553,4.043,4.043,0,0,0,1.482.971,5.214,5.214,0,0,0,1.884.332,5.147,5.147,0,0,0,1.861-.332,4.159,4.159,0,0,0,1.494-.971,4.536,4.536,0,0,0,.983-1.553,5.6,5.6,0,0,0,.356-2.051V95.049h1v11.19a6.477,6.477,0,0,1-.439,2.454,5.048,5.048,0,0,1-3.011,2.928A6.448,6.448,0,0,1,77.169,112Z"/><path class="c" d="M96.089,95.879l-.355.782a11.78,11.78,0,0,0-1.767-.557,8.609,8.609,0,0,0-2.026-.249A5.068,5.068,0,0,0,90.3,96.1a3.989,3.989,0,0,0-1.245.663,2.867,2.867,0,0,0-.782.972,2.68,2.68,0,0,0-.273,1.2,2.118,2.118,0,0,0,.379,1.28,3.377,3.377,0,0,0,1.008.9,8.483,8.483,0,0,0,1.422.675q.794.3,1.636.6a16.712,16.712,0,0,1,1.636.7,6.371,6.371,0,0,1,1.422.948,4.287,4.287,0,0,1,1.008,1.328,4.239,4.239,0,0,1,.379,1.884,4.784,4.784,0,0,1-.392,1.968,4.121,4.121,0,0,1-1.125,1.494,5.214,5.214,0,0,1-1.755.948,7.352,7.352,0,0,1-2.276.331,8.076,8.076,0,0,1-1.814-.189,8.787,8.787,0,0,1-1.458-.462,9.539,9.539,0,0,1-1.1-.546c-.309-.181-.55-.32-.724-.415l.474-.878a8.127,8.127,0,0,0,.913.534,10.607,10.607,0,0,0,1.137.5,9.092,9.092,0,0,0,1.269.367,6.325,6.325,0,0,0,1.327.142,5.81,5.81,0,0,0,1.565-.224,4.834,4.834,0,0,0,1.47-.688,3.747,3.747,0,0,0,1.09-1.186,3.319,3.319,0,0,0,.427-1.719,3.205,3.205,0,0,0-.378-1.612,3.639,3.639,0,0,0-1.008-1.126,7.306,7.306,0,0,0-1.423-.806q-.794-.343-1.636-.651t-1.636-.64a7.208,7.208,0,0,1-1.422-.782,3.684,3.684,0,0,1-1.008-1.067,2.847,2.847,0,0,1-.379-1.518,3.724,3.724,0,0,1,.344-1.576,3.9,3.9,0,0,1,.972-1.3,4.622,4.622,0,0,1,1.5-.878,5.661,5.661,0,0,1,1.944-.319,8.477,8.477,0,0,1,1.151.083q.6.083,1.2.213c.395.087.762.186,1.1.3A6.212,6.212,0,0,1,96.089,95.879Z"/><path class="a" d="M104.908,103.205a8.477,8.477,0,0,1,.7-3.414,9.048,9.048,0,0,1,4.694-4.741,8.573,8.573,0,0,1,6.84,0,9.209,9.209,0,0,1,2.821,1.92,9.037,9.037,0,0,1,1.909,2.822,8.709,8.709,0,0,1,0,6.84,8.9,8.9,0,0,1-4.729,4.682,8.85,8.85,0,0,1-6.84,0,8.84,8.84,0,0,1-2.8-1.884,9.022,9.022,0,0,1-1.9-2.8A8.446,8.446,0,0,1,104.908,103.205Zm2.916,0a6.038,6.038,0,0,0,.462,2.359,5.925,5.925,0,0,0,1.28,1.921,6.171,6.171,0,0,0,1.9,1.292,5.719,5.719,0,0,0,2.335.474,5.609,5.609,0,0,0,2.288-.474,5.89,5.89,0,0,0,1.872-1.292,6.15,6.15,0,0,0,1.257-1.921,6.038,6.038,0,0,0,.462-2.359,5.91,5.91,0,0,0-.474-2.36,6.36,6.36,0,0,0-1.28-1.932,5.939,5.939,0,0,0-1.884-1.3,5.873,5.873,0,0,0-4.623,0,5.792,5.792,0,0,0-1.873,1.3,6.275,6.275,0,0,0-1.256,1.932A6.043,6.043,0,0,0,107.824,103.205Z"/><path class="a" d="M125.415,111.811V94.528H130.3a8.414,8.414,0,0,1,2.6.378A5.64,5.64,0,0,1,134.886,96a4.813,4.813,0,0,1,1.268,1.755,5.852,5.852,0,0,1,.451,2.346,7.215,7.215,0,0,1-.308,2.075,5.05,5.05,0,0,1-1.008,1.849,5.169,5.169,0,0,1-1.814,1.328,6.593,6.593,0,0,1-2.75.509h-2.418v5.951Zm2.893-8.677h2.323a3.226,3.226,0,0,0,1.494-.308,2.8,2.8,0,0,0,.948-.771,2.84,2.84,0,0,0,.5-.971,3.453,3.453,0,0,0,.143-.913,3.68,3.68,0,0,0-.131-.889,2.661,2.661,0,0,0-.474-.96,2.757,2.757,0,0,0-.936-.759,3.283,3.283,0,0,0-1.518-.308h-2.346Z"/><path class="a" d="M149.431,95.5l-1.044,2.371a16.182,16.182,0,0,0-1.967-.569,8.467,8.467,0,0,0-1.8-.213,4.04,4.04,0,0,0-2.288.569,1.693,1.693,0,0,0-.842,1.447,1.475,1.475,0,0,0,.628,1.233,6.807,6.807,0,0,0,1.576.854q.948.379,2.051.77a9.713,9.713,0,0,1,2.052,1.008,5.432,5.432,0,0,1,1.576,1.565,4.294,4.294,0,0,1,.628,2.418,4.993,4.993,0,0,1-.415,2.063,4.243,4.243,0,0,1-1.245,1.588,5.968,5.968,0,0,1-2.1,1.031,10.722,10.722,0,0,1-2.976.367,11.606,11.606,0,0,1-1.9-.142,11.243,11.243,0,0,1-1.529-.355,9.3,9.3,0,0,1-1.2-.462,9.084,9.084,0,0,1-.9-.486L139,108.018a9.287,9.287,0,0,0,2.134.842,8.114,8.114,0,0,0,2.014.3,8.24,8.24,0,0,0,1.1-.095,5.5,5.5,0,0,0,1.316-.355,3.387,3.387,0,0,0,1.1-.712,1.551,1.551,0,0,0,.462-1.162,1.709,1.709,0,0,0-.628-1.363,6.375,6.375,0,0,0-1.576-.948q-.948-.415-2.051-.818a12.511,12.511,0,0,1-2.052-.96,5.407,5.407,0,0,1-1.576-1.375,3.3,3.3,0,0,1-.628-2.074,4.617,4.617,0,0,1,.355-1.767,4.5,4.5,0,0,1,1.079-1.553,5.539,5.539,0,0,1,1.8-1.114,6.923,6.923,0,0,1,2.549-.427,10.3,10.3,0,0,1,1.79.154q.865.156,1.553.344a11.542,11.542,0,0,1,1.137.367Q149.336,95.476,149.431,95.5Z"/></svg>